<svg xmlns="http://www.w3.org/2000/svg" viewBox="0 9.600000381469727 57.150001525878906 41" data-asc="0.966"><g fill="#d73c3c"><g fill="#d73c3c" transform="translate(0, 0)"><path d="M12.55 49.65Q9.80 49.65 8.40 48.30Q7 46.95 7 44.55L7.10 43.45Q7.10 43.05 6.90 43.05L6.60 43.25Q5.40 45.25 4.10 46.92Q2.80 48.60 2.10 49.30L1.40 49.95Q0.70 50.60 0.35 50.60Q0 50.60 0 50Q0 49.20 0.50 48.05Q1.25 46.40 2.58 43.63Q3.90 40.85 7.88 33.77Q11.85 26.70 15.60 21.30Q19.40 15.80 21.50 13.80Q22.25 13.05 22.65 13.05Q22.90 13.05 22.90 13.45Q22.90 13.55 22.80 14.15Q22.35 16.15 19.25 21.50Q13.05 31.60 10.25 37.90Q8.40 41.45 8.40 44.45Q8.40 46.15 9.30 47.22Q10.20 48.30 11.80 48.30Q14.10 48.30 16.28 46.45Q18.45 44.60 19.90 42Q21.35 39.40 22.25 36.70Q23.15 34 23.15 32.15Q23.15 27.70 19.05 26.75Q19 26.55 19 26.35Q19 25.75 19.70 25.65Q23.55 25.65 26.55 22.77Q29.55 19.90 29.55 16.15Q29.55 14.05 28.00 12.42Q26.45 10.80 22.25 10.80Q17.70 10.80 14.90 13.30Q12.10 15.80 12.10 19.00Q12.10 19.90 12.45 20.65Q12.65 21.05 12.65 21.30Q12.65 21.60 12.35 21.60Q12.10 21.60 11.90 21.50Q11.55 21.35 11.05 21.10Q10.55 20.85 9.73 19.85Q8.90 18.85 8.90 17.65Q8.90 14.35 12.95 11.97Q17 9.60 22.75 9.60Q23.35 9.60 24.13 9.65Q24.90 9.70 26.65 10.10Q28.40 10.50 29.73 11.17Q31.05 11.85 32.10 13.30Q33.15 14.75 33.15 16.70Q33.15 18.75 32.17 20.47Q31.20 22.20 29.58 23.37Q27.95 24.55 26.18 25.30Q24.40 26.05 22.50 26.45Q22.15 26.60 22.15 26.75Q22.15 26.85 22.45 27.00Q22.60 27.10 22.90 27.25Q23.20 27.40 23.93 28.05Q24.65 28.70 25.23 29.47Q25.80 30.25 26.25 31.60Q26.70 32.95 26.70 34.45Q26.70 40.20 22.43 44.92Q18.15 49.65 12.55 49.65ZM24.05 44.85Q24.85 42.85 26.33 40.20Q27.80 37.55 28.90 35.90L30.00 34.30Q30.70 33.30 31.40 33.30Q31.95 33.30 31.95 33.85L31.80 34.35Q30.00 38.90 30.00 42.20Q30.00 44.85 31.18 46.52Q32.35 48.20 34.85 48.20Q38.60 48.20 40.90 44.92Q43.20 41.65 43.20 37.85Q43.20 34.60 40.98 28.57Q38.75 22.55 38.75 20.40Q38.75 15.75 42.73 12.92Q46.70 10.10 51.45 10.10Q52.30 10.10 53.13 10.20Q53.95 10.30 54.95 10.52Q55.95 10.75 56.55 11.25Q57.15 11.75 57.15 12.50Q57.15 13.50 55.75 15.90Q54.35 18.30 53.40 19.55Q53.05 19.80 52.80 19.80Q52.45 19.80 52.45 19.20Q52.45 17.80 52.75 15.40Q52.75 11.50 49.75 11.50Q47.20 11.50 45.43 13.25Q43.65 15.00 43.65 17.50Q43.65 20.80 45.98 26.70Q48.30 32.60 48.30 35.80Q48.30 41.80 43.58 45.67Q38.85 49.55 32.95 49.55Q31.95 49.55 30.55 49.35Q29.15 49.15 27.60 48.72Q26.05 48.30 24.98 47.47Q23.90 46.65 23.90 45.60Q23.90 45.20 24.05 44.85Z"/></g></g></svg>